<?xml version="1.0" encoding="UTF-8" standalone="no"?>
<svg
   xmlns:dc="http://purl.org/dc/elements/1.1/"
   xmlns:cc="http://creativecommons.org/ns#"
   xmlns:rdf="http://www.w3.org/1999/02/22-rdf-syntax-ns#"
   xmlns:svg="http://www.w3.org/2000/svg"
   xmlns="http://www.w3.org/2000/svg"
   xmlns:sodipodi="http://sodipodi.sourceforge.net/DTD/sodipodi-0.dtd"
   xmlns:inkscape="http://www.inkscape.org/namespaces/inkscape"
   width="48"
   height="48"
   version="1"
   id="svg14"
   sodipodi:docname="preferences-other.svg"
   inkscape:version="0.92.4 (5da689c313, 2019-01-14)">
  <metadata
     id="metadata20">
    <rdf:RDF>
      <cc:Work
         rdf:about="">
        <dc:format>image/svg+xml</dc:format>
        <dc:type
           rdf:resource="http://purl.org/dc/dcmitype/StillImage" />
        <dc:title></dc:title>
      </cc:Work>
    </rdf:RDF>
  </metadata>
  <defs
     id="defs18" />
  <sodipodi:namedview
     pagecolor="#ffffff"
     bordercolor="#666666"
     borderopacity="1"
     objecttolerance="10"
     gridtolerance="10"
     guidetolerance="10"
     inkscape:pageopacity="0"
     inkscape:pageshadow="2"
     inkscape:window-width="1318"
     inkscape:window-height="706"
     id="namedview16"
     showgrid="false"
     inkscape:zoom="4.9166667"
     inkscape:cx="5.0956572"
     inkscape:cy="24"
     inkscape:window-x="48"
     inkscape:window-y="30"
     inkscape:window-maximized="1"
     inkscape:current-layer="svg14" />
  <path
     fill="#e4e4e4"
     d="m17 4-2 2v4h-12v30c0 1.108 0.892 2 2 2h36c1.108 0 2-0.892 2-2v-30h-12v-4l-2-2zm0 2h12v4h-12z"
     id="path2" />
  <path
     opacity=".2"
     d="m17 6v1h12v-1h-12zm-14 34v1c0 1.108 0.892 2 2 2h36c1.108 0 2-0.892 2-2v-1c0 1.108-0.892 2-2 2h-36c-1.108 0-2-0.892-2-2z"
     id="path4" />
  <circle
     opacity=".2"
     cx="36"
     cy="37"
     r="11"
     id="circle6" />
  <circle
     cx="36"
     cy="36"
     r="11"
     id="circle8"
     fill="#4ab3e4"
     style="fill:#ff9900" />
  <path
     fill="#fff"
     d="m38 29v5.0536h2.625l-4.625 6.946-4.625-7h2.625v-5h4zm-7 12h10v2h-10z"
     id="path10" />
  <path
     fill="#fff"
     opacity=".2"
     d="m17 4l-2 2v1l2-2h12l2 2v-1l-2-2h-12zm-14 6v1h12v-1h-12zm14 0v1h12v-1h-12zm14 0v1h12v-1h-12z"
     id="path12" />
</svg>
