<?xml version="1.0" encoding="UTF-8" standalone="no"?>
<svg
   xmlns:dc="http://purl.org/dc/elements/1.1/"
   xmlns:cc="http://creativecommons.org/ns#"
   xmlns:rdf="http://www.w3.org/1999/02/22-rdf-syntax-ns#"
   xmlns:svg="http://www.w3.org/2000/svg"
   xmlns="http://www.w3.org/2000/svg"
   xmlns:sodipodi="http://sodipodi.sourceforge.net/DTD/sodipodi-0.dtd"
   xmlns:inkscape="http://www.inkscape.org/namespaces/inkscape"
   width="48"
   height="48"
   version="1"
   id="svg20"
   sodipodi:docname="package-x-generic.svg"
   inkscape:version="0.92.4 (5da689c313, 2019-01-14)">
  <metadata
     id="metadata26">
    <rdf:RDF>
      <cc:Work
         rdf:about="">
        <dc:format>image/svg+xml</dc:format>
        <dc:type
           rdf:resource="http://purl.org/dc/dcmitype/StillImage" />
        <dc:title></dc:title>
      </cc:Work>
    </rdf:RDF>
  </metadata>
  <defs
     id="defs24" />
  <sodipodi:namedview
     pagecolor="#ffffff"
     bordercolor="#666666"
     borderopacity="1"
     objecttolerance="10"
     gridtolerance="10"
     guidetolerance="10"
     inkscape:pageopacity="0"
     inkscape:pageshadow="2"
     inkscape:window-width="813"
     inkscape:window-height="480"
     id="namedview22"
     showgrid="false"
     inkscape:zoom="4.9166667"
     inkscape:cx="2.6440678"
     inkscape:cy="24"
     inkscape:window-x="48"
     inkscape:window-y="30"
     inkscape:window-maximized="0"
     inkscape:current-layer="svg20" />
  <path
     style="opacity:0.2"
     d="M 44,43 V 7 C 44,5.892 43.108,5 42,5 H 6 C 4.892,5 4,5.892 4,7 v 36 c 0,1.108 0.892,2 2,2 h 36 c 1.108,0 2,-0.892 2,-2 z"
     id="path2" />
  <path
     fill="#8bc34a"
     d="m44 42v-36c0-1.108-0.892-2-2-2h-36c-1.108 0-2 0.892-2 2v36c0 1.108 0.892 2 2 2h36c1.108 0 2-0.892 2-2z"
     id="path4" />
  <g
     id="g12">
    <path
       style="opacity:0.2"
       d="m 22,4 v 12 c 0,1.1 0.895,2 2,2 1.105,0 2,-0.9 2,-2 V 4 Z"
       id="path6" />
    <path
       style="opacity:0.2"
       d="m 24,4 v 1 h 1 V 4 Z m 0,1 h -1 v 1 h 1 z m 0,1 v 1 h 1 V 6 Z m 0,1 h -1 v 1 h 1 z m 0,1 v 1 h 1 V 8 Z m 0,1 h -1 v 1 h 1 z m 0,1 v 1 h 1 v -1 z m 0,1 h -1 v 1 h 1 z m 0,1 v 1 h 1 v -1 z m 0,1 h -1 v 1 h 1 z m 0,1 v 1 h 1 v -1 z m 0,1 h -1 v 1 h 1 z m 0,1 v 1 h 1 v -1 z m 0,1 h -1 c -0.1561,1.390912 1,1.390912 1,0 z"
       id="path8" />
    <path
       style="fill:#dddddd"
       d="m 23,4 v 1 h 1 V 4 Z m 0,2 v 1 h 1 V 6 Z m 0,2 v 1 h 1 V 8 Z m 0,2 v 1 h 1 v -1 z m 0,2 v 1 h 1 v -1 z m 0,2 v 1 h 1 v -1 z m 0,2 v 1 h 1 v -1 z"
       id="path10" />
  </g>
  <path
     style="opacity:0.2"
     d="m 24,17 c -2.21,0 -4,1.8 -4,4 v 8 c 0,2.2 1.79,4 4,4 2.21,0 4,-1.8 4,-4 v -8 c 0,-2.2 -1.79,-4 -4,-4 z m 0,2 c 1.104,0 2,0.8 2,2 0,1 -0.896,2 -2,2 -1.104,0 -2,-1 -2,-2 0,-1.2 0.896,-2 2,-2 z m 0,6 c 1.104,0 2,0.8 2,2 v 2 c 0,1 -0.896,2 -2,2 -1.104,0 -2,-1 -2,-2 v -2 c 0,-1.2 0.896,-2 2,-2 z"
     id="path14" />
  <path
     style="fill:#f5f5f5"
     d="m 24,16 c -2.21,0 -4,1.8 -4,4 v 8 c 0,2.2 1.79,4 4,4 2.21,0 4,-1.8 4,-4 v -8 c 0,-2.2 -1.79,-4 -4,-4 z m 0,2 c 1.104,0 2,0.8 2,2 0,1 -0.896,2 -2,2 -1.104,0 -2,-1 -2,-2 0,-1.2 0.896,-2 2,-2 z m 0,6 c 1.104,0 2,0.8 2,2 v 2 c 0,1 -0.896,2 -2,2 -1.104,0 -2,-1 -2,-2 v -2 c 0,-1.2 0.896,-2 2,-2 z"
     id="path16" />
  <path
     fill="#fff"
     opacity=".2"
     d="m6 4c-1.108 0-2 0.892-2 2v1c0-1.108 0.892-2 2-2h36c1.108 0 2 0.892 2 2v-1c0-1.108-0.892-2-2-2h-36z"
     id="path18" />
</svg>
